#Comment line ignore any data following # character 
#Hierarchical Translation and Rotation (.htr) file 
[Header]	
#Header keywords are followed by a single value 
FileType HTR		#Single word string
DataType HTRS		#Translation followed by rotation and scale data
FileVersion 1		#integer
NumSegments 23		#integer
NumFrames 6		#integer
DataFrameRate 30		#integer, data frame rate in this file
EulerRotationOrder ZYX
CalibrationUnits mm
RotationUnits Degrees
GlobalAxisofGravity Y
BoneLengthAxis Y
ScaleFactor 1.00
[SegmentNames&Hierarchy]
#CHILD	PARENT
MASTER GLOBAL
weapon MASTER
arm_lock_bottom_part1 weapon
arm_lock_bottom_part2 weapon
arm_lock_bottom_part3 weapon
arm_lock_bottom_part4 weapon
arm_lock_top_part1 weapon
arm_lock_top_part2 weapon
arm_lock_top_part3 weapon
front_lower_left_part1 weapon
front_lower_right_part1 weapon
front_top_left_part weapon
front_top_right_part1 weapon
scope_part1 weapon
scope_part2 weapon
front_lower_left_part2 front_lower_left_part1
front_lower_left_part3 front_lower_left_part2
front_lower_right_part2 front_lower_right_part1
front_lower_right_part3 front_lower_right_part2
front_top_left_part2 front_top_left_part
front_top_left_part3 front_top_left_part2
front_top_right_part2 front_top_right_part1
front_top_right_part3 front_top_right_part2
[BasePosition]
#SegmentName Tx, Ty, Tz, Rx, Ry, Rz, BoneLength
MASTER 0.000000 0.000000 0.000000 -90.000000 0.000000 0.000000 10.000000 
weapon 0.000000 0.000000 0.000000 0.000000 0.000000 0.000000 10.000000 
arm_lock_bottom_part1 0.000000 0.000000 0.000000 0.000000 0.000000 0.000000 10.000000 
arm_lock_bottom_part2 0.000000 0.000000 0.000000 0.000000 0.000000 0.000000 10.000000 
arm_lock_bottom_part3 0.000000 0.000000 0.000000 0.000000 0.000000 0.000000 10.000000 
arm_lock_bottom_part4 0.000000 0.000000 0.000000 0.000000 0.000000 0.000000 10.000000 
arm_lock_top_part1 0.000000 0.000000 0.000000 0.000000 0.000000 0.000000 10.000000 
arm_lock_top_part2 0.000000 0.000000 0.000000 0.000000 0.000000 0.000000 10.000000 
arm_lock_top_part3 0.000000 0.000000 0.000000 0.000000 0.000000 0.000000 10.000000 
front_lower_left_part1 0.000000 0.000000 0.000000 0.000000 0.000000 0.000000 10.000000 
front_lower_right_part1 0.000000 0.000000 0.000000 0.000000 0.000000 0.000000 10.000000 
front_top_left_part 0.000000 0.000000 0.000000 0.000000 0.000000 0.000000 10.000000 
front_top_right_part1 0.000000 0.000000 0.000000 0.000000 0.000000 0.000000 10.000000 
scope_part1 0.000000 0.000000 0.000000 0.000000 0.000000 0.000000 10.000000 
scope_part2 0.000000 0.000000 0.000000 0.000000 0.000000 0.000000 10.000000 
front_lower_left_part2 0.000000 0.000000 0.000000 0.000000 0.000000 0.000000 10.000000 
front_lower_left_part3 0.000000 0.000000 0.000000 0.000000 0.000000 0.000000 10.000000 
front_lower_right_part2 0.000000 0.000000 0.000000 0.000000 0.000000 0.000000 10.000000 
front_lower_right_part3 0.000000 0.000000 0.000000 0.000000 0.000000 0.000000 10.000000 
front_top_left_part2 0.000000 0.000000 0.000000 0.000000 0.000000 0.000000 10.000000 
front_top_left_part3 0.000000 0.000000 0.000000 0.000000 0.000000 0.000000 10.000000 
front_top_right_part2 0.000000 0.000000 0.000000 0.000000 0.000000 0.000000 10.000000 
front_top_right_part3 0.000000 0.000000 0.000000 0.000000 0.000000 0.000000 10.000000 
#Beginning of Data. Separated by tabs
#Fr	Tx	Ty	Tz	Rx	Ry	Rz	SF
[MASTER]
71 0.000000 -0.000019 0.000002 0.002458 -0.000000 0.000000 0.000019
72 0.000000 -0.000019 0.000002 0.002458 -0.000000 0.000000 0.000019
73 0.000000 -0.000019 0.000002 0.002458 -0.000000 0.000000 0.000019
74 0.000000 -0.000019 0.000002 0.002458 -0.000000 0.000000 0.000019
75 0.000000 -0.000019 0.000002 0.002458 -0.000000 0.000000 0.000019
76 0.000000 -0.000019 0.000002 0.002458 -0.000000 0.000000 0.000019
[weapon]
71 10.182457 -168.977844 -13.084106 -0.002473 -0.000000 -0.000020 169.789246
72 10.182457 -168.977844 -13.084106 -0.002473 -0.000000 -0.000020 169.789246
73 10.182457 -168.977844 -13.084106 -0.002473 -0.000000 -0.000020 169.789246
74 10.182457 -168.977844 -13.084106 -0.002473 -0.000000 -0.000020 169.789246
75 10.182476 -168.977844 -13.084106 -0.002473 -0.000000 -0.000020 169.789246
76 10.182457 -168.977844 -13.084106 -0.002473 -0.000000 -0.000020 169.789246
[arm_lock_bottom_part1]
71 -48.820000 98.566208 -83.498993 179.999985 0.000004 9.388626 138.096970
72 -48.820000 98.566208 -83.498993 179.999985 0.000004 9.388626 138.096970
73 -48.820000 98.566208 -83.498993 179.999985 0.000004 9.388626 138.096970
74 -48.820000 98.566208 -83.498993 179.999985 0.000004 9.388626 138.096970
75 -48.820000 98.566170 -83.498993 179.999985 0.000004 9.388626 138.096939
76 -48.820000 98.566208 -83.498993 179.999985 0.000004 9.388626 138.096970
[arm_lock_bottom_part2]
71 -49.022766 58.782005 -78.526535 -179.999985 -0.000001 6.576765 109.658440
72 -49.022766 58.782005 -78.526535 -179.999985 -0.000001 6.576765 109.658440
73 -49.022766 58.782005 -78.526535 -179.999985 -0.000001 6.576765 109.658440
74 -49.022766 58.782005 -78.526535 -179.999985 -0.000001 6.576765 109.658440
75 -49.022766 58.781967 -78.526535 -179.999985 -0.000001 6.576765 109.658417
76 -49.022766 58.782005 -78.526535 -179.999985 -0.000001 6.576765 109.658440
[arm_lock_bottom_part3]
71 -51.266422 -16.798210 -66.920395 -179.999985 -0.000001 4.326176 85.957924
72 -51.266422 -16.798210 -66.920395 -179.999985 -0.000001 4.326176 85.957924
73 -51.266422 -16.798210 -66.920395 -179.999985 -0.000001 4.326176 85.957924
74 -51.266422 -16.798210 -66.920395 -179.999985 -0.000001 4.326176 85.957924
75 -51.266422 -16.798248 -66.920395 -179.999985 -0.000001 4.326176 85.957932
76 -51.266422 -16.798210 -66.920395 -179.999985 -0.000001 4.326176 85.957924
[arm_lock_bottom_part4]
71 -40.078102 -93.503113 -59.330063 -179.999985 -0.000000 1.322129 117.767326
72 -40.078102 -93.503113 -59.330063 -179.999985 -0.000000 1.322129 117.767326
73 -40.078102 -93.503113 -59.330063 -179.999985 -0.000000 1.322129 117.767326
74 -40.078102 -93.503113 -59.330063 -179.999985 -0.000000 1.322129 117.767326
75 -40.078083 -93.503136 -59.330063 -179.999985 -0.000000 1.322129 117.767326
76 -40.078102 -93.503113 -59.330063 -179.999985 -0.000000 1.322129 117.767326
[arm_lock_top_part1]
71 -47.532558 61.554489 78.379364 0.000000 -0.000000 -9.999999 110.415680
72 -47.532558 61.554489 78.379364 0.000000 -0.000000 -9.999999 110.415680
73 -47.532558 61.554489 78.379364 0.000000 -0.000000 -9.999999 110.415680
74 -47.532558 61.554489 78.379364 0.000000 -0.000000 -9.999999 110.415680
75 -47.532558 61.554451 78.379364 0.000000 -0.000000 -9.999999 110.415672
76 -47.532558 61.554489 78.379364 0.000000 -0.000000 -9.999999 110.415680
[arm_lock_top_part2]
71 -45.622673 13.709908 63.393555 0.000000 -0.000000 -7.722126 79.297745
72 -45.622673 13.709908 63.393555 0.000000 -0.000000 -7.722126 79.297745
73 -45.622673 13.709908 63.393555 0.000000 -0.000000 -7.722126 79.297745
74 -45.622673 13.709908 63.393555 0.000000 -0.000000 -7.722126 79.297745
75 -45.622673 13.709869 63.393555 0.000000 -0.000000 -7.722126 79.297745
76 -45.622673 13.709908 63.393555 0.000000 -0.000000 -7.722126 79.297745
[arm_lock_top_part3]
71 -43.788544 -73.747208 72.061615 0.000000 0.000000 -4.533067 112.022163
72 -43.788544 -73.747208 72.061615 0.000000 0.000000 -4.533067 112.022163
73 -43.788544 -73.747208 72.061615 0.000000 0.000000 -4.533067 112.022163
74 -43.788544 -73.747208 72.061615 0.000000 0.000000 -4.533067 112.022163
75 -43.788525 -73.747253 72.061615 0.000000 0.000000 -4.533067 112.022179
76 -43.788544 -73.747208 72.061615 0.000000 0.000000 -4.533067 112.022163
[front_lower_left_part1]
71 -46.798534 475.071045 -43.538895 -17.980034 0.000051 32.194077 479.351898
72 -46.798534 475.071045 -43.538895 -17.980034 0.000051 32.194077 479.351898
73 -46.798534 475.071045 -43.538895 -17.980034 0.000051 32.194077 479.351898
74 -46.798534 475.071045 -43.538895 -17.980034 0.000051 32.194077 479.351898
75 -46.798534 475.071014 -43.538895 -17.980034 0.000051 32.194073 479.351868
76 -46.798534 475.071045 -43.538895 -17.980034 0.000051 32.194077 479.351898
[front_lower_right_part1]
71 26.433468 475.070984 -43.538742 -17.167982 -0.000012 -27.317894 477.793671
72 26.433468 475.070984 -43.538742 -17.167982 -0.000012 -27.317896 477.793671
73 26.433468 475.070984 -43.538742 -17.167988 -0.000012 -27.317902 477.793671
74 26.433468 475.070984 -43.538742 -17.167982 -0.000012 -27.317894 477.793671
75 26.433447 475.070953 -43.538895 -17.167982 -0.000012 -27.317894 477.793640
76 26.433468 475.070984 -43.538742 -17.167982 -0.000012 -27.317894 477.793671
[front_top_left_part]
71 -47.897224 494.788910 7.030945 -0.000000 0.000003 -0.000001 497.151520
72 -47.897224 494.788910 7.030945 -0.000000 0.000003 -0.000001 497.151520
73 -47.897224 494.788910 7.030945 -0.000000 0.000003 -0.000001 497.151520
74 -47.897224 494.788910 7.030945 -0.000000 0.000003 -0.000001 497.151520
75 -47.897224 494.788879 7.030945 -0.000000 0.000003 -0.000001 497.151489
76 -47.897224 494.788910 7.030945 -0.000000 0.000003 -0.000001 497.151520
[front_top_right_part1]
71 27.532139 494.788910 7.031097 0.000000 -0.000000 -0.000000 495.604218
72 27.532139 494.788910 7.031097 0.000000 -0.000000 -0.000000 495.604218
73 27.532139 494.788910 7.031097 0.000000 -0.000000 -0.000000 495.604218
74 27.532139 494.788910 7.031097 0.000000 -0.000000 -0.000000 495.604218
75 27.532156 494.788879 7.031097 0.000000 -0.000000 -0.000000 495.604187
76 27.532139 494.788910 7.031097 0.000000 -0.000000 -0.000000 495.604218
[scope_part1]
71 -10.754299 87.338936 156.453094 -5.067973 -14.574986 1.278569 179.502960
72 -10.754299 87.338936 156.453094 -5.070013 -14.662604 1.286579 179.502960
73 -10.754299 87.338936 156.453094 -5.072016 -14.748839 1.294366 179.502960
74 -10.754299 87.338936 156.453094 -5.074011 -14.833136 1.302228 179.502960
75 -10.754318 87.338905 156.453094 -5.075933 -14.915425 1.309682 179.502960
76 -10.754299 87.338936 156.453094 -5.077812 -14.995234 1.317022 179.502960
[scope_part2]
71 -10.754299 82.597351 156.859894 -5.641404 29.574785 -2.791205 177.603500
72 -10.754299 82.597351 156.859894 -5.647041 29.676012 -2.802666 177.603500
73 -10.754299 82.597351 156.859894 -5.652694 29.775578 -2.814054 177.603500
74 -10.754299 82.597351 156.859894 -5.658225 29.873100 -2.825149 177.603500
75 -10.754318 82.597305 156.859894 -5.663588 29.968086 -2.835916 177.603470
76 -10.754299 82.597351 156.859894 -5.668914 30.060318 -2.846526 177.603500
[front_lower_left_part2]
71 -55.193634 141.618408 32.268219 0.000000 -0.000000 14.428988 155.381317
72 -55.193634 141.618408 32.268219 0.000000 -0.000000 14.505476 155.381317
73 -55.193634 141.618408 32.268219 0.000000 -0.000000 14.580106 155.381317
74 -55.193634 141.618408 32.268219 0.000000 -0.000000 14.652873 155.381317
75 -55.193558 141.618347 32.268372 0.000000 -0.000000 14.722531 155.381241
76 -55.193634 141.618408 32.268219 0.000000 -0.000000 14.792189 155.381317
[front_lower_left_part3]
71 -10.943755 108.509407 -11.125030 35.814354 -8.080366 -25.196117 109.625839
72 -10.943909 108.509445 -11.124877 35.802799 -8.138975 -25.114069 109.625870
73 -10.943831 108.509369 -11.124877 35.791172 -8.197563 -25.032000 109.625786
74 -10.943831 108.509407 -11.125030 35.779449 -8.255999 -24.950148 109.625839
75 -10.943831 108.509369 -11.124877 35.767727 -8.313996 -24.868805 109.625786
76 -10.943831 108.509521 -11.125030 35.756233 -8.370440 -24.789570 109.625946
[front_lower_right_part2]
71 55.193668 141.618195 32.268372 0.000000 0.000000 -18.406670 155.381149
72 55.193668 141.618195 32.268372 0.000000 0.000000 -18.458027 155.381149
73 55.193668 141.618195 32.268372 0.000000 0.000000 -18.508137 155.381149
74 55.193668 141.618195 32.268372 0.000000 0.000000 -18.557152 155.381149
75 55.193665 141.618195 32.268372 0.000000 0.000000 -18.604753 155.381149
76 55.193668 141.618195 32.268372 0.000000 0.000000 -18.650644 155.381149
[front_lower_right_part3]
71 10.943775 108.509590 -11.124877 35.347916 10.159198 22.254026 109.625999
72 10.943793 108.509552 -11.124725 35.337242 10.201177 22.193829 109.625954
73 10.943909 108.509590 -11.124725 35.326561 10.243215 22.133656 109.625999
74 10.943755 108.509590 -11.124573 35.315918 10.284985 22.073734 109.625969
75 10.943890 108.509369 -11.124725 35.305321 10.326276 22.014482 109.625778
76 10.943909 108.509407 -11.124725 35.294849 10.366793 21.956308 109.625816
[front_top_left_part2]
71 -86.814316 137.393097 57.271267 9.854504 0.478315 19.533695 172.318268
72 -86.941231 137.392883 57.278137 9.855074 0.468655 19.589371 172.384354
73 -87.065239 137.392578 57.285004 9.855565 0.459190 19.643816 172.448975
74 -87.185944 137.392349 57.291718 9.856080 0.450012 19.696712 172.511978
75 -87.302979 137.392044 57.298122 9.856599 0.441118 19.748058 172.573044
76 -87.415886 137.391891 57.304230 9.857046 0.432477 19.797543 172.632111
[front_top_left_part3]
71 -28.216438 149.656830 49.959717 -26.050438 -1.975217 -62.570030 160.278839
72 -28.216400 149.656906 49.959564 -26.052551 -1.945028 -62.508247 160.278854
73 -28.216476 149.656830 49.959717 -26.054626 -1.914839 -62.446461 160.278839
74 -28.216400 149.656830 49.959717 -26.056652 -1.885165 -62.385799 160.278839
75 -28.216400 149.656982 49.959793 -26.058578 -1.855938 -62.325981 160.279007
76 -28.216400 149.656982 49.959641 -26.060434 -1.827803 -62.268391 160.278961
[front_top_right_part2]
71 80.826424 137.569962 52.736511 8.067139 1.114069 -22.603498 168.046265
72 80.939644 137.570190 52.730255 8.065951 1.122944 -22.666008 168.098969
73 81.050415 137.570404 52.724148 8.064878 1.131404 -22.725813 168.150589
74 81.158302 137.570648 52.718201 8.063791 1.139863 -22.785606 168.200958
75 81.262939 137.570877 52.712551 8.062716 1.147978 -22.842751 168.249893
76 81.364029 137.571091 52.706909 8.061692 1.155807 -22.898014 168.297150
[front_top_right_part3]
71 28.216452 149.656982 49.959564 -25.919365 3.349715 65.392548 160.278946
72 28.216532 149.656906 49.959564 -25.922440 3.323879 65.339317 160.278885
73 28.216459 149.657059 49.959717 -25.925497 3.298168 65.286278 160.279053
74 28.216494 149.656982 49.959641 -25.928495 3.272800 65.233948 160.278961
75 28.216461 149.656906 49.959488 -25.931442 3.247767 65.182335 160.278839
76 28.216511 149.656906 49.959564 -25.934296 3.223212 65.131760 160.278870
